# xmcd
#
# Track frame offsets: 
#        150
#        15311
#        33778
#        54122
#        69273
#        87346
#        110963
#        136668
#        149735
#        171186
#        185910
#        202574
#        218599
#        235523
#        254831
#        281615
#        308189
#        328356
#
# Disc length: 4713 seconds
#
# Revision: 1
# Processed by: cddbd v1.5.2PL0 Copyright (c) Steve Scherf et al.
# Submitted via: ExactAudioCopyFreeDBPlugin 1.0
#
DISCID=02126712
DTITLE=Various Artist - Philadelphia International Records - The 40th
DTITLE=Anniversary Box Set CD4
DYEAR=2012
DGENRE=Soul
TTITLE0=Harold Melvin and The Blue Notes - Where Are All My Friends
TTITLE1=M.F.S.B. - Summertime and I'm Feeling Mellow
TTITLE2=The O'Jays - Let Life Flow
TTITLE3=Jean Carn - If You Wanna Go Back
TTITLE4=Archie Bell and The Drells - It's Hard Not to Like You
TTITLE5=The Futures - Party Time Man
TTITLE6=The Intruders - Everyone's a Star
TTITLE7=Bunny Sigler - Your Love is Good
TTITLE8=Billy Paul - The Whole Town's Talking
TTITLE9=Instant Funk - So Glad I'm the One
TTITLE10=Harold Melvin and The Blue Notes - Keep on Lovin' You
TTITLE11=Anthony White - Yes You Need Love
TTITLE12=Instant Funk - It Ain't Reggae (But It's Funky)
TTITLE13=The Futures - (You're the One) Someone Special
TTITLE14=Bunny Sigler - Keep Smilin'
TTITLE15=Jean Carn - I'm in Love Once Again
TTITLE16=Teddy Pendergrass - The Whole Town's Laughing at Me
TTITLE17=Billy Paul - Sooner or Later
EXTD=
EXTT0=
EXTT1=
EXTT2=
EXTT3=
EXTT4=
EXTT5=
EXTT6=
EXTT7=
EXTT8=
EXTT9=
EXTT10=
EXTT11=
EXTT12=
EXTT13=
EXTT14=
EXTT15=
EXTT16=
EXTT17=
PLAYORDER=
